<?xml version="1.0" encoding="UTF-8" standalone="no"?>
<!DOCTYPE svg PUBLIC "-//W3C//DTD SVG 1.1//EN"
 "http://www.w3.org/Graphics/SVG/1.1/DTD/svg11.dtd">
<!-- Generated by graphviz version 2.49.0 (0)
 -->
<!-- Title: GWBASE_Flowchart Pages: 1 -->
<svg width="1188pt" height="1442pt"
 viewBox="0.00 0.00 1188.00 1442.00" xmlns="http://www.w3.org/2000/svg" xmlns:xlink="http://www.w3.org/1999/xlink">
<g id="graph0" class="graph" transform="scale(1 1) rotate(0) translate(18 1424)">
<title>GWBASE_Flowchart</title>
<polygon fill="#fcfcfd" stroke="transparent" points="-18,18 -18,-1424 1170,-1424 1170,18 -18,18"/>
<text text-anchor="middle" x="576" y="-7" font-family="Helvetica,sans-Serif" font-size="10.00" fill="#0f172a">Figure X. Flowchart of the GW–Baseflow analysis algorithm.</text>
<g id="clust2" class="cluster">
<title>cluster_link</title>
<path fill="#eef2ff" stroke="#c7d2fe" stroke-width="1.2" d="M420,-873C420,-873 772,-873 772,-873 778,-873 784,-879 784,-885 784,-885 784,-1182 784,-1182 784,-1188 778,-1194 772,-1194 772,-1194 420,-1194 420,-1194 414,-1194 408,-1188 408,-1182 408,-1182 408,-885 408,-885 408,-879 414,-873 420,-873"/>
<text text-anchor="middle" x="510.5" y="-1180.4" font-family="Helvetica,sans-Serif" font-size="12.00">Hydrogeologic Pairing &amp; Screening</text>
</g>
<g id="clust1" class="cluster">
<title>cluster_prep</title>
<path fill="#eef2ff" stroke="#c7d2fe" stroke-width="1.2" d="M555,-1215C555,-1215 907,-1215 907,-1215 913,-1215 919,-1221 919,-1227 919,-1227 919,-1386 919,-1386 919,-1392 913,-1398 907,-1398 907,-1398 555,-1398 555,-1398 549,-1398 543,-1392 543,-1386 543,-1386 543,-1227 543,-1227 543,-1221 549,-1215 555,-1215"/>
<text text-anchor="middle" x="626" y="-1384.4" font-family="Helvetica,sans-Serif" font-size="12.00">Data &amp; Network Preparation</text>
</g>
<g id="clust3" class="cluster">
<title>cluster_ts</title>
<path fill="#eef2ff" stroke="#c7d2fe" stroke-width="1.2" d="M20,-570C20,-570 772,-570 772,-570 778,-570 784,-576 784,-582 784,-582 784,-840 784,-840 784,-846 778,-852 772,-852 772,-852 20,-852 20,-852 14,-852 8,-846 8,-840 8,-840 8,-582 8,-582 8,-576 14,-570 20,-570"/>
<text text-anchor="middle" x="97.5" y="-838.4" font-family="Helvetica,sans-Serif" font-size="12.00">Time&#45;Series Processing (BFD)</text>
</g>
<g id="clust4" class="cluster">
<title>cluster_delta</title>
<path fill="#eef2ff" stroke="#c7d2fe" stroke-width="1.2" d="M20,-27C20,-27 372,-27 372,-27 378,-27 384,-33 384,-39 384,-39 384,-462 384,-462 384,-468 378,-474 372,-474 372,-474 20,-474 20,-474 14,-474 8,-468 8,-462 8,-462 8,-39 8,-39 8,-33 14,-27 20,-27"/>
<text text-anchor="middle" x="101.5" y="-460.4" font-family="Helvetica,sans-Serif" font-size="12.00">Δ Analysis &amp; Basin Aggregation</text>
</g>
<!-- S1 -->
<g id="node1" class="node">
<title>S1</title>
<path fill="#f3f4f6" stroke="#e5e7eb" stroke-width="1.2" d="M899,-1369C899,-1369 563,-1369 563,-1369 557,-1369 551,-1363 551,-1357 551,-1357 551,-1337 551,-1337 551,-1331 557,-1325 563,-1325 563,-1325 899,-1325 899,-1325 905,-1325 911,-1331 911,-1337 911,-1337 911,-1357 911,-1357 911,-1363 905,-1369 899,-1369"/>
<text text-anchor="middle" x="731" y="-1350.2" font-family="Helvetica,sans-Serif" font-size="11.00" fill="#0f172a">Identify terminal gages</text>
<text text-anchor="middle" x="731" y="-1338.2" font-family="Helvetica,sans-Serif" font-size="11.00" fill="#0f172a">&amp; upstream segments/catchments</text>
</g>
<!-- S2 -->
<g id="node2" class="node">
<title>S2</title>
<path fill="#f3f4f6" stroke="#e5e7eb" stroke-width="1.2" d="M899,-1267C899,-1267 563,-1267 563,-1267 557,-1267 551,-1261 551,-1255 551,-1255 551,-1235 551,-1235 551,-1229 557,-1223 563,-1223 563,-1223 899,-1223 899,-1223 905,-1223 911,-1229 911,-1235 911,-1235 911,-1255 911,-1255 911,-1261 905,-1267 899,-1267"/>
<text text-anchor="middle" x="731" y="-1248.2" font-family="Helvetica,sans-Serif" font-size="11.00" fill="#0f172a">Find all wells within</text>
<text text-anchor="middle" x="731" y="-1236.2" font-family="Helvetica,sans-Serif" font-size="11.00" fill="#0f172a">(upstream) catchments</text>
</g>
<!-- S1&#45;&gt;S2 -->
<g id="edge1" class="edge">
<title>S1&#45;&gt;S2</title>
<path fill="none" stroke="#6b7280" stroke-width="1.2" d="M731,-1324.79C731,-1310.74 731,-1292.08 731,-1276.45"/>
<polygon fill="#6b7280" stroke="#6b7280" stroke-width="1.2" points="734.15,-1276.18 731,-1267.18 727.85,-1276.18 734.15,-1276.18"/>
</g>
<!-- LEG -->
<g id="node13" class="node">
<title>LEG</title>
<path fill="#ffffff" stroke="transparent" stroke-width="1.2" d="M1140,-709C1140,-709 804,-709 804,-709 798,-709 792,-703 792,-697 792,-697 792,-515 792,-515 792,-509 798,-503 804,-503 804,-503 1140,-503 1140,-503 1146,-503 1152,-509 1152,-515 1152,-515 1152,-697 1152,-697 1152,-703 1146,-709 1140,-709"/>
<text text-anchor="start" x="952.5" y="-697.2" font-family="Helvetica,sans-Serif" font-weight="bold" font-size="11.00" fill="#0f172a">Legend</text>
<polygon fill="#f3f4f6" stroke="transparent" points="896,-665 896,-679 914,-679 914,-665 896,-665"/>
<polygon fill="none" stroke="#e5e7eb" points="896,-665 896,-679 914,-679 914,-665 896,-665"/>
<polygon fill="none" stroke="#e5e7eb" points="914,-659 914,-685 1049,-685 1049,-659 914,-659"/>
<text text-anchor="start" x="921" y="-669.2" font-family="Helvetica,sans-Serif" font-size="11.00" fill="#0f172a">Data selection</text>
<polygon fill="#e0f2fe" stroke="transparent" points="896,-639 896,-653 914,-653 914,-639 896,-639"/>
<polygon fill="none" stroke="#e5e7eb" points="896,-639 896,-653 914,-653 914,-639 896,-639"/>
<polygon fill="none" stroke="#e5e7eb" points="914,-633 914,-659 1049,-659 1049,-633 914,-633"/>
<text text-anchor="start" x="921" y="-643.2" font-family="Helvetica,sans-Serif" font-size="11.00" fill="#0f172a">Pairing &amp; screening</text>
<polygon fill="#dcfce7" stroke="transparent" points="896,-613 896,-627 914,-627 914,-613 896,-613"/>
<polygon fill="none" stroke="#e5e7eb" points="896,-613 896,-627 914,-627 914,-613 896,-613"/>
<polygon fill="none" stroke="#e5e7eb" points="914,-607 914,-633 1049,-633 1049,-607 914,-607"/>
<text text-anchor="start" x="921" y="-617.2" font-family="Helvetica,sans-Serif" font-size="11.00" fill="#0f172a">BFD filtering &amp; pairing</text>
<polygon fill="#ffe4e6" stroke="transparent" points="896,-587 896,-601 914,-601 914,-587 896,-587"/>
<polygon fill="none" stroke="#e5e7eb" points="896,-587 896,-601 914,-601 914,-587 896,-587"/>
<polygon fill="none" stroke="#e5e7eb" points="914,-581 914,-607 1049,-607 1049,-581 914,-581"/>
<text text-anchor="start" x="921" y="-591.2" font-family="Helvetica,sans-Serif" font-size="11.00" fill="#0f172a">Δ analysis &amp; aggregation</text>
<polygon fill="#3b82f6" stroke="transparent" points="898.5,-557 898.5,-567 916.5,-567 916.5,-557 898.5,-557"/>
<polygon fill="none" stroke="#e5e7eb" points="898.5,-557 898.5,-567 916.5,-567 916.5,-557 898.5,-557"/>
<polygon fill="none" stroke="#e5e7eb" points="919,-551 919,-573 1049,-573 1049,-551 919,-551"/>
<text text-anchor="start" x="924" y="-559.2" font-family="Helvetica,sans-Serif" font-size="11.00" fill="#0f172a">Flow: wells → reach</text>
<polygon fill="#14b8a6" stroke="transparent" points="898.5,-535 898.5,-545 916.5,-545 916.5,-535 898.5,-535"/>
<polygon fill="none" stroke="#e5e7eb" points="898.5,-535 898.5,-545 916.5,-545 916.5,-535 898.5,-535"/>
<polygon fill="none" stroke="#e5e7eb" points="919,-529 919,-551 1049,-551 1049,-529 919,-529"/>
<text text-anchor="start" x="924" y="-537.2" font-family="Helvetica,sans-Serif" font-size="11.00" fill="#0f172a">Flow: screening → BFD</text>
<polygon fill="#f59e0b" stroke="transparent" points="898.5,-513 898.5,-523 916.5,-523 916.5,-513 898.5,-513"/>
<polygon fill="none" stroke="#e5e7eb" points="898.5,-513 898.5,-523 916.5,-523 916.5,-513 898.5,-513"/>
<polygon fill="none" stroke="#e5e7eb" points="919,-507 919,-529 1049,-529 1049,-507 919,-507"/>
<text text-anchor="start" x="924" y="-515.2" font-family="Helvetica,sans-Serif" font-size="11.00" fill="#0f172a">Flow: pairing → Δ init</text>
</g>
<!-- S1&#45;&gt;LEG -->
<!-- S3 -->
<g id="node3" class="node">
<title>S3</title>
<path fill="#e0f2fe" stroke="#e5e7eb" stroke-width="1.2" d="M764,-1165C764,-1165 428,-1165 428,-1165 422,-1165 416,-1159 416,-1153 416,-1153 416,-1121 416,-1121 416,-1115 422,-1109 428,-1109 428,-1109 764,-1109 764,-1109 770,-1109 776,-1115 776,-1121 776,-1121 776,-1153 776,-1153 776,-1159 770,-1165 764,-1165"/>
<text text-anchor="middle" x="596" y="-1146.2" font-family="Helvetica,sans-Serif" font-size="11.00" fill="#0f172a">For each well: find closest</text>
<text text-anchor="middle" x="596" y="-1134.2" font-family="Helvetica,sans-Serif" font-size="11.00" fill="#0f172a">stream segment (reach)</text>
<text text-anchor="middle" x="596" y="-1122.2" font-family="Helvetica,sans-Serif" font-size="11.00" fill="#0f172a">(record reach ID &amp; elevation)</text>
</g>
<!-- S2&#45;&gt;S3 -->
<g id="edge9" class="edge">
<title>S2&#45;&gt;S3</title>
<path fill="none" stroke="#3b82f6" stroke-width="1.2" d="M704.01,-1222.8C685.06,-1207.93 659.37,-1187.76 637.79,-1170.81"/>
<polygon fill="#3b82f6" stroke="#3b82f6" stroke-width="1.2" points="639.67,-1168.29 630.65,-1165.21 635.78,-1173.24 639.67,-1168.29"/>
</g>
<!-- S4 -->
<g id="node4" class="node">
<title>S4</title>
<path fill="#e0f2fe" stroke="#e5e7eb" stroke-width="1.2" d="M764,-1051C764,-1051 428,-1051 428,-1051 422,-1051 416,-1045 416,-1039 416,-1039 416,-1019 416,-1019 416,-1013 422,-1007 428,-1007 428,-1007 764,-1007 764,-1007 770,-1007 776,-1013 776,-1019 776,-1019 776,-1039 776,-1039 776,-1045 770,-1051 764,-1051"/>
<text text-anchor="middle" x="596" y="-1032.2" font-family="Helvetica,sans-Serif" font-size="11.00" fill="#0f172a">Filter wells with insufficient</text>
<text text-anchor="middle" x="596" y="-1020.2" font-family="Helvetica,sans-Serif" font-size="11.00" fill="#0f172a">time series</text>
</g>
<!-- S3&#45;&gt;S4 -->
<g id="edge2" class="edge">
<title>S3&#45;&gt;S4</title>
<path fill="none" stroke="#6b7280" stroke-width="1.2" d="M596,-1108.98C596,-1094.15 596,-1075.71 596,-1060.38"/>
<polygon fill="#6b7280" stroke="#6b7280" stroke-width="1.2" points="599.15,-1060.29 596,-1051.29 592.85,-1060.29 599.15,-1060.29"/>
</g>
<!-- S5 -->
<g id="node5" class="node">
<title>S5</title>
<path fill="#e0f2fe" stroke="#e5e7eb" stroke-width="1.2" d="M764,-949C764,-949 428,-949 428,-949 422,-949 416,-943 416,-937 416,-937 416,-893 416,-893 416,-887 422,-881 428,-881 428,-881 764,-881 764,-881 770,-881 776,-887 776,-893 776,-893 776,-937 776,-937 776,-943 770,-949 764,-949"/>
<text text-anchor="middle" x="596" y="-930.2" font-family="Helvetica,sans-Serif" font-size="11.00" fill="#0f172a">Elevation screen:</text>
<text text-anchor="middle" x="596" y="-918.2" font-family="Helvetica,sans-Serif" font-size="11.00" fill="#0f172a">Keep wells ≥ reach elevation;</text>
<text text-anchor="middle" x="596" y="-906.2" font-family="Helvetica,sans-Serif" font-size="11.00" fill="#0f172a">If below but within buffer → keep;</text>
<text text-anchor="middle" x="596" y="-894.2" font-family="Helvetica,sans-Serif" font-size="11.00" fill="#0f172a">Else → drop</text>
</g>
<!-- S4&#45;&gt;S5 -->
<g id="edge3" class="edge">
<title>S4&#45;&gt;S5</title>
<path fill="none" stroke="#6b7280" stroke-width="1.2" d="M596,-1006.93C596,-993.25 596,-974.92 596,-958.31"/>
<polygon fill="#6b7280" stroke="#6b7280" stroke-width="1.2" points="599.15,-958.3 596,-949.3 592.85,-958.3 599.15,-958.3"/>
</g>
<!-- S6 -->
<g id="node6" class="node">
<title>S6</title>
<path fill="#dcfce7" stroke="#e5e7eb" stroke-width="1.2" d="M764,-817C764,-817 428,-817 428,-817 422,-817 416,-811 416,-805 416,-805 416,-785 416,-785 416,-779 422,-773 428,-773 428,-773 764,-773 764,-773 770,-773 776,-779 776,-785 776,-785 776,-805 776,-805 776,-811 770,-817 764,-817"/>
<text text-anchor="middle" x="596" y="-798.2" font-family="Helvetica,sans-Serif" font-size="11.00" fill="#0f172a">For each well: PCHIP to daily</text>
<text text-anchor="middle" x="596" y="-786.2" font-family="Helvetica,sans-Serif" font-size="11.00" fill="#0f172a">(groundwater level WTE)</text>
</g>
<!-- S5&#45;&gt;S6 -->
<g id="edge10" class="edge">
<title>S5&#45;&gt;S6</title>
<path fill="none" stroke="#14b8a6" stroke-width="1.2" d="M596,-880.82C596,-863.72 596,-843.02 596,-826.36"/>
<polygon fill="#14b8a6" stroke="#14b8a6" stroke-width="1.2" points="599.15,-826.06 596,-817.06 592.85,-826.06 599.15,-826.06"/>
</g>
<!-- S7 -->
<g id="node7" class="node">
<title>S7</title>
<path fill="#dcfce7" stroke="#e5e7eb" stroke-width="1.2" d="M364,-823C364,-823 28,-823 28,-823 22,-823 16,-817 16,-811 16,-811 16,-779 16,-779 16,-773 22,-767 28,-767 28,-767 364,-767 364,-767 370,-767 376,-773 376,-779 376,-779 376,-811 376,-811 376,-817 370,-823 364,-823"/>
<text text-anchor="middle" x="196" y="-804.2" font-family="Helvetica,sans-Serif" font-size="11.00" fill="#0f172a">For each gage: filter streamflow</text>
<text text-anchor="middle" x="196" y="-792.2" font-family="Helvetica,sans-Serif" font-size="11.00" fill="#0f172a">by Baseflow&#45;Dominated (BFD=1)</text>
<text text-anchor="middle" x="196" y="-780.2" font-family="Helvetica,sans-Serif" font-size="11.00" fill="#0f172a">(from ML classifier)</text>
</g>
<!-- S5&#45;&gt;S7 -->
<g id="edge11" class="edge">
<title>S5&#45;&gt;S7</title>
<path fill="none" stroke="#14b8a6" stroke-width="1.2" d="M484.05,-880.97C425.13,-863.59 353.48,-842.46 296.38,-825.61"/>
<polygon fill="#14b8a6" stroke="#14b8a6" stroke-width="1.2" points="297.22,-822.58 287.7,-823.05 295.44,-828.62 297.22,-822.58"/>
</g>
<!-- S8 -->
<g id="node8" class="node">
<title>S8</title>
<path fill="#dcfce7" stroke="#e5e7eb" stroke-width="1.2" d="M364,-634C364,-634 28,-634 28,-634 22,-634 16,-628 16,-622 16,-622 16,-590 16,-590 16,-584 22,-578 28,-578 28,-578 364,-578 364,-578 370,-578 376,-584 376,-590 376,-590 376,-622 376,-622 376,-628 370,-634 364,-634"/>
<text text-anchor="middle" x="196" y="-615.2" font-family="Helvetica,sans-Serif" font-size="11.00" fill="#0f172a">For each remaining WTE value:</text>
<text text-anchor="middle" x="196" y="-603.2" font-family="Helvetica,sans-Serif" font-size="11.00" fill="#0f172a">match same&#45;date streamflow</text>
<text text-anchor="middle" x="196" y="-591.2" font-family="Helvetica,sans-Serif" font-size="11.00" fill="#0f172a">If BFD=1 → create WTE–Q pair</text>
</g>
<!-- S6&#45;&gt;S8 -->
<g id="edge4" class="edge">
<title>S6&#45;&gt;S8</title>
<path fill="none" stroke="#6b7280" stroke-width="1.2" d="M550.89,-772.91C480.37,-739.94 343.66,-676.03 262.04,-637.87"/>
<polygon fill="#6b7280" stroke="#6b7280" stroke-width="1.2" points="263.32,-634.99 253.83,-634.03 260.65,-640.7 263.32,-634.99"/>
</g>
<!-- S7&#45;&gt;S8 -->
<g id="edge5" class="edge">
<title>S7&#45;&gt;S8</title>
<path fill="none" stroke="#6b7280" stroke-width="1.2" d="M196,-766.81C196,-734.26 196,-679.63 196,-643.45"/>
<polygon fill="#6b7280" stroke="#6b7280" stroke-width="1.2" points="199.15,-643.22 196,-634.22 192.85,-643.22 199.15,-643.22"/>
</g>
<!-- S9 -->
<g id="node9" class="node">
<title>S9</title>
<path fill="#ffe4e6" stroke="#e5e7eb" stroke-width="1.2" d="M364,-445C364,-445 28,-445 28,-445 22,-445 16,-439 16,-433 16,-433 16,-413 16,-413 16,-407 22,-401 28,-401 28,-401 364,-401 364,-401 370,-401 376,-407 376,-413 376,-413 376,-433 376,-433 376,-439 370,-445 364,-445"/>
<text text-anchor="middle" x="196" y="-426.2" font-family="Helvetica,sans-Serif" font-size="11.00" fill="#0f172a">For each well: on first BFD=1 date,</text>
<text text-anchor="middle" x="196" y="-414.2" font-family="Helvetica,sans-Serif" font-size="11.00" fill="#0f172a">mark WTE₀ and Q₀</text>
</g>
<!-- S8&#45;&gt;S9 -->
<g id="edge12" class="edge">
<title>S8&#45;&gt;S9</title>
<path fill="none" stroke="#f59e0b" stroke-width="1.2" d="M196,-577.9C196,-544.73 196,-488.72 196,-454.19"/>
<polygon fill="#f59e0b" stroke="#f59e0b" stroke-width="1.2" points="199.15,-454.06 196,-445.06 192.85,-454.06 199.15,-454.06"/>
</g>
<!-- S10 -->
<g id="node10" class="node">
<title>S10</title>
<path fill="#ffe4e6" stroke="#e5e7eb" stroke-width="1.2" d="M364,-343C364,-343 28,-343 28,-343 22,-343 16,-337 16,-331 16,-331 16,-299 16,-299 16,-293 22,-287 28,-287 28,-287 364,-287 364,-287 370,-287 376,-293 376,-299 376,-299 376,-331 376,-331 376,-337 370,-343 364,-343"/>
<text text-anchor="middle" x="196" y="-324.2" font-family="Helvetica,sans-Serif" font-size="11.00" fill="#0f172a">Compute ΔWTE = WTE − WTE₀</text>
<text text-anchor="middle" x="196" y="-312.2" font-family="Helvetica,sans-Serif" font-size="11.00" fill="#0f172a">Compute ΔQ &#160;&#160;= Q &#160;&#160;− Q₀</text>
<text text-anchor="middle" x="196" y="-300.2" font-family="Helvetica,sans-Serif" font-size="11.00" fill="#0f172a">(Only on BFD=1 dates)</text>
</g>
<!-- S9&#45;&gt;S10 -->
<g id="edge6" class="edge">
<title>S9&#45;&gt;S10</title>
<path fill="none" stroke="#6b7280" stroke-width="1.2" d="M196,-400.8C196,-386.97 196,-368.54 196,-352.39"/>
<polygon fill="#6b7280" stroke="#6b7280" stroke-width="1.2" points="199.15,-352.21 196,-343.21 192.85,-352.21 199.15,-352.21"/>
</g>
<!-- S11 -->
<g id="node11" class="node">
<title>S11</title>
<path fill="#ffe4e6" stroke="#e5e7eb" stroke-width="1.2" d="M364,-229C364,-229 28,-229 28,-229 22,-229 16,-223 16,-217 16,-217 16,-173 16,-173 16,-167 22,-161 28,-161 28,-161 364,-161 364,-161 370,-161 376,-167 376,-173 376,-173 376,-217 376,-217 376,-223 370,-229 364,-229"/>
<text text-anchor="middle" x="196" y="-210.2" font-family="Helvetica,sans-Serif" font-size="11.00" fill="#0f172a">Analyze ΔWTE–ΔQ relationships</text>
<text text-anchor="middle" x="196" y="-198.2" font-family="Helvetica,sans-Serif" font-size="11.00" fill="#0f172a">• per gage (well&#45;level)</text>
<text text-anchor="middle" x="196" y="-186.2" font-family="Helvetica,sans-Serif" font-size="11.00" fill="#0f172a">• highlight top R² wells</text>
<text text-anchor="middle" x="196" y="-174.2" font-family="Helvetica,sans-Serif" font-size="11.00" fill="#0f172a">• spatial mapping</text>
</g>
<!-- S10&#45;&gt;S11 -->
<g id="edge7" class="edge">
<title>S10&#45;&gt;S11</title>
<path fill="none" stroke="#6b7280" stroke-width="1.2" d="M196,-286.93C196,-272.59 196,-254.66 196,-238.52"/>
<polygon fill="#6b7280" stroke="#6b7280" stroke-width="1.2" points="199.15,-238.26 196,-229.26 192.85,-238.26 199.15,-238.26"/>
</g>
<!-- S12 -->
<g id="node12" class="node">
<title>S12</title>
<path fill="#ffe4e6" stroke="#e5e7eb" stroke-width="1.2" d="M364,-103C364,-103 28,-103 28,-103 22,-103 16,-97 16,-91 16,-91 16,-47 16,-47 16,-41 22,-35 28,-35 28,-35 364,-35 364,-35 370,-35 376,-41 376,-47 376,-47 376,-91 376,-91 376,-97 370,-103 364,-103"/>
<text text-anchor="middle" x="196" y="-84.2" font-family="Helvetica,sans-Serif" font-size="11.00" fill="#0f172a">Aggregate within each terminal&#45;gage</text>
<text text-anchor="middle" x="196" y="-72.2" font-family="Helvetica,sans-Serif" font-size="11.00" fill="#0f172a">catchment and entire basin</text>
<text text-anchor="middle" x="196" y="-60.2" font-family="Helvetica,sans-Serif" font-size="11.00" fill="#0f172a">• total ΔQ vs ΔWTE</text>
<text text-anchor="middle" x="196" y="-48.2" font-family="Helvetica,sans-Serif" font-size="11.00" fill="#0f172a">• normalized ΔQ vs ΔWTE</text>
</g>
<!-- S11&#45;&gt;S12 -->
<g id="edge8" class="edge">
<title>S11&#45;&gt;S12</title>
<path fill="none" stroke="#6b7280" stroke-width="1.2" d="M196,-160.77C196,-145.9 196,-128.19 196,-112.38"/>
<polygon fill="#6b7280" stroke="#6b7280" stroke-width="1.2" points="199.15,-112.32 196,-103.32 192.85,-112.32 199.15,-112.32"/>
</g>
</g>
</svg>
