<?xml version="1.0" encoding="UTF-8" standalone="no"?>
<!DOCTYPE svg PUBLIC "-//W3C//DTD SVG 1.1//EN"
 "http://www.w3.org/Graphics/SVG/1.1/DTD/svg11.dtd">
<!-- Generated by graphviz version 2.49.0 (0)
 -->
<!-- Title: terminal_gage_flowchart Pages: 1 -->
<svg width="450pt" height="633pt"
 viewBox="14.40 14.40 435.90 618.40" xmlns="http://www.w3.org/2000/svg" xmlns:xlink="http://www.w3.org/1999/xlink">
<g id="graph0" class="graph" transform="scale(1 1) rotate(0) translate(18.4 614.4)">
<title>terminal_gage_flowchart</title>
<polygon fill="white" stroke="transparent" points="-4,4 -4,-600 417.5,-600 417.5,4 -4,4"/>
<!-- start -->
<g id="node1" class="node">
<title>start</title>
<path fill="#f9fbff" stroke="#2c3e50" d="M253.5,-596C253.5,-596 97.5,-596 97.5,-596 91.5,-596 85.5,-590 85.5,-584 85.5,-584 85.5,-572 85.5,-572 85.5,-566 91.5,-560 97.5,-560 97.5,-560 253.5,-560 253.5,-560 259.5,-560 265.5,-566 265.5,-572 265.5,-572 265.5,-584 265.5,-584 265.5,-590 259.5,-596 253.5,-596"/>
<text text-anchor="middle" x="175.5" y="-581.2" font-family="Helvetica,sans-Serif" font-size="11.00">Start</text>
<text text-anchor="middle" x="175.5" y="-569.2" font-family="Helvetica,sans-Serif" font-size="11.00">(Study area &amp; hydrologic network)</text>
</g>
<!-- list_gages -->
<g id="node2" class="node">
<title>list_gages</title>
<path fill="#f9fbff" stroke="#2c3e50" d="M221,-523C221,-523 130,-523 130,-523 124,-523 118,-517 118,-511 118,-511 118,-499 118,-499 118,-493 124,-487 130,-487 130,-487 221,-487 221,-487 227,-487 233,-493 233,-499 233,-499 233,-511 233,-511 233,-517 227,-523 221,-523"/>
<text text-anchor="middle" x="175.5" y="-508.2" font-family="Helvetica,sans-Serif" font-size="11.00">List all stream gages</text>
<text text-anchor="middle" x="175.5" y="-496.2" font-family="Helvetica,sans-Serif" font-size="11.00">in study area</text>
</g>
<!-- start&#45;&gt;list_gages -->
<g id="edge1" class="edge">
<title>start&#45;&gt;list_gages</title>
<path fill="none" stroke="#34495e" d="M175.5,-559.81C175.5,-551.18 175.5,-540.56 175.5,-531.03"/>
<polygon fill="#34495e" stroke="#34495e" points="178.3,-531.03 175.5,-523.03 172.7,-531.03 178.3,-531.03"/>
</g>
<!-- build_graph -->
<g id="node3" class="node">
<title>build_graph</title>
<path fill="#f9fbff" stroke="#2c3e50" d="M259.5,-450C259.5,-450 91.5,-450 91.5,-450 85.5,-450 79.5,-444 79.5,-438 79.5,-438 79.5,-426 79.5,-426 79.5,-420 85.5,-414 91.5,-414 91.5,-414 259.5,-414 259.5,-414 265.5,-414 271.5,-420 271.5,-426 271.5,-426 271.5,-438 271.5,-438 271.5,-444 265.5,-450 259.5,-450"/>
<text text-anchor="middle" x="175.5" y="-435.2" font-family="Helvetica,sans-Serif" font-size="11.00">Build downstream connectivity</text>
<text text-anchor="middle" x="175.5" y="-423.2" font-family="Helvetica,sans-Serif" font-size="11.00">(graph of stream segments &amp; gages)</text>
</g>
<!-- list_gages&#45;&gt;build_graph -->
<g id="edge2" class="edge">
<title>list_gages&#45;&gt;build_graph</title>
<path fill="none" stroke="#34495e" d="M175.5,-486.81C175.5,-478.18 175.5,-467.56 175.5,-458.03"/>
<polygon fill="#34495e" stroke="#34495e" points="178.3,-458.03 175.5,-450.03 172.7,-458.03 178.3,-458.03"/>
</g>
<!-- decision -->
<g id="node4" class="node">
<title>decision</title>
<polygon fill="#fff2b2" stroke="#b58900" points="175.5,-377 36.5,-345 175.5,-313 314.5,-345 175.5,-377"/>
<text text-anchor="middle" x="175.5" y="-348.2" font-family="Helvetica,sans-Serif" font-size="11.00">Downstream gages</text>
<text text-anchor="middle" x="175.5" y="-336.2" font-family="Helvetica,sans-Serif" font-size="11.00">within the same network?</text>
</g>
<!-- build_graph&#45;&gt;decision -->
<g id="edge3" class="edge">
<title>build_graph&#45;&gt;decision</title>
<path fill="none" stroke="#34495e" d="M175.5,-413.8C175.5,-405.61 175.5,-395.46 175.5,-385.52"/>
<polygon fill="#34495e" stroke="#34495e" points="178.3,-385.27 175.5,-377.27 172.7,-385.27 178.3,-385.27"/>
</g>
<!-- non_term -->
<g id="node5" class="node">
<title>non_term</title>
<path fill="#f0f4f8" stroke="#2c3e50" d="M133,-255C133,-255 12,-255 12,-255 6,-255 0,-249 0,-243 0,-243 0,-231 0,-231 0,-225 6,-219 12,-219 12,-219 133,-219 133,-219 139,-219 145,-225 145,-231 145,-231 145,-243 145,-243 145,-249 139,-255 133,-255"/>
<text text-anchor="middle" x="72.5" y="-240.2" font-family="Helvetica,sans-Serif" font-size="11.00">Mark as non&#45;terminal gage</text>
<text text-anchor="middle" x="72.5" y="-228.2" font-family="Helvetica,sans-Serif" font-size="11.00">(keep for connectivity only)</text>
</g>
<!-- decision&#45;&gt;non_term -->
<g id="edge4" class="edge">
<title>decision&#45;&gt;non_term</title>
<path fill="none" stroke="#d35400" d="M93.42,-331.86C72.46,-324.64 52.27,-313.17 39.5,-295 31.97,-284.29 37.78,-271.75 46.51,-261.17"/>
<polygon fill="#d35400" stroke="#d35400" points="48.62,-263.01 51.9,-255.19 44.46,-259.25 48.62,-263.01"/>
<text text-anchor="middle" x="96.5" y="-287" font-family="Helvetica,sans-Serif" font-size="10.00">YES</text>
<text text-anchor="middle" x="96.5" y="-276" font-family="Helvetica,sans-Serif" font-size="10.00">(has downstream gage(s))</text>
</g>
<!-- term -->
<g id="node6" class="node">
<title>term</title>
<path fill="#e6f4ea" stroke="#2e7d32" d="M334,-255C334,-255 209,-255 209,-255 203,-255 197,-249 197,-243 197,-243 197,-231 197,-231 197,-225 203,-219 209,-219 209,-219 334,-219 334,-219 340,-219 346,-225 346,-231 346,-231 346,-243 346,-243 346,-249 340,-255 334,-255"/>
<text text-anchor="middle" x="271.5" y="-234.2" font-family="Helvetica,sans-Serif" font-size="11.00">Mark as TERMINAL GAGE</text>
</g>
<!-- decision&#45;&gt;term -->
<g id="edge5" class="edge">
<title>decision&#45;&gt;term</title>
<path fill="none" stroke="#2e7d32" stroke-width="2" d="M217.53,-322.54C229.09,-315.07 240.81,-305.81 249.5,-295 256.97,-285.71 262.12,-273.6 265.55,-262.92"/>
<polygon fill="#2e7d32" stroke="#2e7d32" stroke-width="2" points="268.27,-263.58 267.84,-255.12 262.9,-262 268.27,-263.58"/>
<text text-anchor="middle" x="337.5" y="-281.5" font-family="Helvetica,sans-Serif" font-size="10.00">NO &#160;→ &#160;has no downstream gages</text>
</g>
<!-- non_term&#45;&gt;decision -->
<g id="edge6" class="edge">
<title>non_term&#45;&gt;decision</title>
<path fill="none" stroke="#95a5a6" stroke-dasharray="5,2" d="M129.38,-255C138.35,-259.69 146.85,-265.59 153.5,-273 161.63,-282.05 166.75,-294.06 169.98,-305.62"/>
<polygon fill="#95a5a6" stroke="#95a5a6" points="167.3,-306.42 171.93,-313.52 172.73,-305.08 167.3,-306.42"/>
<text text-anchor="middle" x="202" y="-281.5" font-family="Helvetica,sans-Serif" font-size="10.00">check next gage</text>
</g>
<!-- delineate -->
<g id="node7" class="node">
<title>delineate</title>
<path fill="#e8f0fe" stroke="#2c3e50" d="M360,-182C360,-182 183,-182 183,-182 177,-182 171,-176 171,-170 171,-170 171,-158 171,-158 171,-152 177,-146 183,-146 183,-146 360,-146 360,-146 366,-146 372,-152 372,-158 372,-158 372,-170 372,-170 372,-176 366,-182 360,-182"/>
<text text-anchor="middle" x="271.5" y="-167.2" font-family="Helvetica,sans-Serif" font-size="11.00">Delineate terminal&#45;gage catchment</text>
<text text-anchor="middle" x="271.5" y="-155.2" font-family="Helvetica,sans-Serif" font-size="11.00">+ all contributing upstream catchments</text>
</g>
<!-- term&#45;&gt;delineate -->
<g id="edge7" class="edge">
<title>term&#45;&gt;delineate</title>
<path fill="none" stroke="#34495e" d="M271.5,-218.81C271.5,-210.18 271.5,-199.56 271.5,-190.03"/>
<polygon fill="#34495e" stroke="#34495e" points="274.3,-190.03 271.5,-182.03 268.7,-190.03 274.3,-190.03"/>
</g>
<!-- dedup -->
<g id="node8" class="node">
<title>dedup</title>
<path fill="#e8f0fe" stroke="#2c3e50" d="M373,-109C373,-109 170,-109 170,-109 164,-109 158,-103 158,-97 158,-97 158,-85 158,-85 158,-79 164,-73 170,-73 170,-73 373,-73 373,-73 379,-73 385,-79 385,-85 385,-85 385,-97 385,-97 385,-103 379,-109 373,-109"/>
<text text-anchor="middle" x="271.5" y="-94.2" font-family="Helvetica,sans-Serif" font-size="11.00">Ensure unique counting of stream segments</text>
<text text-anchor="middle" x="271.5" y="-82.2" font-family="Helvetica,sans-Serif" font-size="11.00">and drainage areas (no double counting)</text>
</g>
<!-- delineate&#45;&gt;dedup -->
<g id="edge8" class="edge">
<title>delineate&#45;&gt;dedup</title>
<path fill="none" stroke="#34495e" d="M271.5,-145.81C271.5,-137.18 271.5,-126.56 271.5,-117.03"/>
<polygon fill="#34495e" stroke="#34495e" points="274.3,-117.03 271.5,-109.03 268.7,-117.03 274.3,-117.03"/>
</g>
<!-- out -->
<g id="node9" class="node">
<title>out</title>
<path fill="#f9fbff" stroke="#2c3e50" d="M364.5,-36C364.5,-36 178.5,-36 178.5,-36 172.5,-36 166.5,-30 166.5,-24 166.5,-24 166.5,-12 166.5,-12 166.5,-6 172.5,0 178.5,0 178.5,0 364.5,0 364.5,0 370.5,0 376.5,-6 376.5,-12 376.5,-12 376.5,-24 376.5,-24 376.5,-30 370.5,-36 364.5,-36"/>
<text text-anchor="middle" x="271.5" y="-21.2" font-family="Helvetica,sans-Serif" font-size="11.00">Output: Set of terminal gages</text>
<text text-anchor="middle" x="271.5" y="-9.2" font-family="Helvetica,sans-Serif" font-size="11.00">and their unique contributing catchments</text>
</g>
<!-- dedup&#45;&gt;out -->
<g id="edge9" class="edge">
<title>dedup&#45;&gt;out</title>
<path fill="none" stroke="#34495e" d="M271.5,-72.81C271.5,-64.18 271.5,-53.56 271.5,-44.03"/>
<polygon fill="#34495e" stroke="#34495e" points="274.3,-44.03 271.5,-36.03 268.7,-44.03 274.3,-44.03"/>
</g>
</g>
</svg>
